<svg width="24" height="24" viewBox="0 0 13 12" fill="none" xmlns="http://www.w3.org/2000/svg">
  <g clip-path="url(#clip0_2683_9391)">
    <path d="M10.9358 3.45336C10.2216 3.17272 9.64844 2.58793 9.37364 1.85327C8.45664 -0.582879 5.07375 -0.628428 4.09357 1.78274H4.0921C3.79672 2.50859 3.21331 3.08016 2.48736 3.34023C0.108166 4.19831 0.0640793 7.62626 2.41976 8.54752C3.12808 8.82523 3.69679 9.40267 3.97454 10.1256C4.87684 12.5779 8.27883 12.6396 9.26342 10.2182C9.5588 9.4923 10.1422 8.92073 10.8682 8.66066C13.2474 7.80257 13.2914 4.37463 10.9358 3.45336ZM5.57516 7.86943H4.4492V4.31101H5.57516V7.86943ZM8.74967 6.84883H7.58403V7.86943H6.45968V4.31101H8.74967C9.65153 4.31101 10.2464 4.74711 10.2464 5.57992C10.2464 6.41274 9.65153 6.84883 8.74967 6.84883ZM8.69104 5.24374H7.58565V5.91787H8.69104V5.91611C8.98245 5.91611 9.13763 5.78166 9.13763 5.57992C9.13763 5.37818 8.98421 5.24374 8.69104 5.24374Z" fill="white"/>
  </g>
  <defs>
    <clipPath id="clip0_2683_9391">
      <rect width="13" height="12" fill="white"/>
    </clipPath>
  </defs>
</svg>
